<?xml version="1.0" encoding="utf-8"?>
<!-- Generator: Adobe Illustrator 23.0.2, SVG Export Plug-In . SVG Version: 6.00 Build 0)  -->
<svg version="1.1" id="Layer_1" xmlns="http://www.w3.org/2000/svg" xmlns:xlink="http://www.w3.org/1999/xlink" x="0px" y="0px"
	 width="390px" height="76px" viewBox="0 0 390 76" style="enable-background:new 0 0 390 76;" xml:space="preserve">
<style type="text/css">
	.st0{opacity:0.2;fill:#FFFFFF;}
	.st1{opacity:0.5;fill:#FFFFFF;}
	.st2{fill:#FFFFFF;}
</style>
<g>
	<path class="st0" d="M74.7,66.6c0.1,1.4-0.9,2.7-2.4,2.8c-1.4,0.1-2.7-0.9-2.8-2.4c-0.1-1.4,0.9-2.7,2.4-2.8
		C73.3,64.1,74.5,65.2,74.7,66.6"/>
	<path class="st0" d="M17.7,17.7c0.1,1.4-0.9,2.7-2.4,2.8c-1.4,0.1-2.7-0.9-2.8-2.4c-0.1-1.4,0.9-2.7,2.4-2.8
		C16.3,15.2,17.6,16.3,17.7,17.7"/>
	<path class="st1" d="M27.2,25.8c0.2,2.2-1.4,4.3-3.7,4.5c-2.2,0.2-4.3-1.4-4.5-3.7c-0.2-2.3,1.4-4.3,3.7-4.5
		C25,21.9,26.9,23.6,27.2,25.8"/>
	<path class="st1" d="M59.9,56.8c1.4-1.7,4-2,5.8-0.6c1.7,1.4,2,4,0.6,5.8c-1.4,1.7-4,2-5.8,0.6C58.7,61.1,58.4,58.5,59.9,56.8"/>
	<path class="st1" d="M52.3,22.4c2.3,1.9,2.6,5.2,0.7,7.5c-1.9,2.3-5.3,2.6-7.5,0.7c-2.3-1.9-2.6-5.2-0.7-7.5
		C46.7,20.9,50.1,20.5,52.3,22.4"/>
	<path class="st1" d="M42.2,16.2c0.2,2.4-1.5,4.5-3.9,4.7c-2.4,0.2-4.5-1.5-4.7-3.9c-0.2-2.4,1.5-4.5,3.9-4.7
		C39.9,12.1,42,13.8,42.2,16.2"/>
	<path class="st1" d="M19.9,42.3c0.2,2.4-1.5,4.5-3.9,4.7c-2.4,0.2-4.5-1.5-4.7-3.9c-0.2-2.4,1.5-4.5,3.9-4.7
		C17.6,38.2,19.7,40,19.9,42.3"/>
	<path class="st1" d="M61.8,16.5c0.2,2.4-1.5,4.5-3.9,4.7c-2.4,0.2-4.5-1.5-4.7-3.9c-0.2-2.4,1.5-4.5,3.8-4.7
		C59.4,12.3,61.5,14.1,61.8,16.5"/>
	<path class="st0" d="M48.9,3.5C49,4.9,48,6.2,46.6,6.3c-1.4,0.1-2.7-0.9-2.8-2.4c-0.1-1.4,0.9-2.7,2.4-2.8
		C47.5,1,48.8,2.1,48.9,3.5"/>
	<path class="st0" d="M8.6,33.1c0.1,1.4-0.9,2.7-2.4,2.8c-1.4,0.1-2.7-0.9-2.8-2.4c-0.1-1.4,0.9-2.7,2.4-2.8
		C7.2,30.6,8.4,31.7,8.6,33.1"/>
	<path class="st0" d="M7,53.5c0.1,1.4-0.9,2.7-2.4,2.8c-1.5,0.1-2.7-0.9-2.8-2.4c-0.1-1.4,0.9-2.7,2.4-2.8C5.6,51,6.8,52,7,53.5"/>
	<path class="st0" d="M31.4,7.5c0.1,1.4-0.9,2.7-2.4,2.8c-1.4,0.1-2.7-0.9-2.8-2.4c-0.1-1.5,0.9-2.7,2.4-2.9C30,5,31.3,6,31.4,7.5"
		/>
	<path class="st0" d="M66.3,6.8c0.1,1.4-0.9,2.7-2.4,2.8c-1.4,0.1-2.7-0.9-2.8-2.4c-0.1-1.4,0.9-2.7,2.4-2.8
		C64.9,4.3,66.2,5.4,66.3,6.8"/>
	<path class="st2" d="M50.6,43.3c-1.4,0.2-3-0.1-4.2-1.1c-1.2-1-1.9-2.5-1.9-3.9c-0.4-3.5-3.5-6-6.9-5.6c-3.5,0.3-6,3.4-5.7,6.9
		c0.3,3.5,3.4,6,6.9,5.7c1.4-0.2,3,0.1,4.2,1.1c1.2,1,1.9,2.5,1.9,4c0.4,3.5,3.5,6,6.9,5.6c3.5-0.3,6-3.4,5.7-6.9
		C57.1,45.5,54,43,50.6,43.3"/>
	<path class="st2" d="M65.8,32.1c2.5,2.1,2.9,5.9,0.8,8.4c-2.1,2.5-5.9,2.9-8.4,0.8c-2.5-2.1-2.9-5.8-0.8-8.4
		C59.5,30.4,63.3,30,65.8,32.1"/>
	<path class="st2" d="M31.7,47.5c2.4,2,2.7,5.5,0.7,7.9c-2,2.4-5.5,2.7-7.9,0.7c-2.4-2-2.7-5.5-0.7-7.9
		C25.8,45.9,29.4,45.5,31.7,47.5"/>
	<path class="st2" d="M75.8,25.8c0.2,2.4-1.5,4.5-3.8,4.7c-2.4,0.2-4.5-1.5-4.7-3.9c-0.2-2.4,1.5-4.5,3.9-4.7
		C73.5,21.7,75.6,23.4,75.8,25.8"/>
	<path class="st2" d="M24.2,63.1c0.2,2.4-1.5,4.5-3.9,4.7c-2.4,0.2-4.5-1.5-4.7-3.9c-0.2-2.4,1.5-4.5,3.9-4.7
		C21.9,59,24,60.8,24.2,63.1"/>
	<path class="st2" d="M81,16.9c0.1,1.4-0.9,2.7-2.4,2.8c-1.4,0.1-2.7-0.9-2.8-2.4c-0.1-1.4,0.9-2.7,2.4-2.8
		C79.6,14.4,80.9,15.5,81,16.9"/>
	<path class="st2" d="M15.1,72c0.1,1.4-0.9,2.7-2.4,2.8c-1.4,0.1-2.7-0.9-2.8-2.4c-0.1-1.4,0.9-2.7,2.4-2.8
		C13.7,69.5,14.9,70.5,15.1,72"/>
	<path class="st2" d="M388,19.1H135.5c-3.7-6.3-6.4-10.3-8.1-11.9c-1.9-1.9-4.1-3.4-6.5-4.4c-2.4-1-4.5-1.5-6.3-1.5h-6.5l4,7.2h4.7
		c2.8,0,5.3,0.5,7.3,1.3c2,0.9,3.5,2,4.4,3.2c0.7,0.9,1.9,2.9,3.8,6.1h-30.7v7H130v9h-19.2c-2,0-3.6,0.5-4.9,1.5
		c-1.2,1-1.8,2.2-1.8,3.9c0,1.6,1.2,3.6,3.6,7.5c2.4,3.7,4.5,5.5,6.2,5.5c1.1,0,1.3-0.2,1.3-0.2c0,0,0.1-0.1,0.1-0.8
		c0-0.5-0.1-1.3-0.2-2.5c-0.1-1.2-0.2-2-0.2-2.6c0-2.5,0.4-4.1,1.2-4.8c0.8-0.7,1.9-1.1,3.4-1.1H130v16.7l7.1,7.8h1V26.1h8.3v12.4
		c0,2.7,1.8,5.4,5.2,8c3.5,2.7,6.9,4,10.2,4c2.2,0,4.3-0.6,6.3-1.7l0.8-0.5v10.1l7.2,7.6h1v-40h9.4v32.3l7.5,7.7h0.7v-40h45.4v7.4
		c-3.6,0.2-7.3,1.6-11.3,4l-0.4,0.2l-0.3-0.2c-5-3.5-9.9-5.3-14.6-5.3c-3.3,0-6,0.8-8.1,2.5c-2.1,1.6-3.1,3.7-3.1,6.3
		c0,2.2,1,4.8,2.9,7.8c1.9,3,7.2,8.6,15.7,16.7l2.7-2c-6.3-6.1-9.9-10-11.1-12c-1.2-2.1-1.8-4-1.8-5.6c0-2.3,0.8-4.3,2.3-6
		c1.5-1.6,3.5-2.4,5.8-2.4l0.1,0c1.9,0,3.9,0.7,6,2l0.6,0.4l-3.5,3.7L229,50c5.8-5.7,9.5-9,11.2-10c1.8-1.1,3.2-1.6,4.5-1.6l0.1,0
		c2.7,0,4.2,1.5,4.2,4.2c0,1.7-0.7,3.7-2.1,5.9c-1.3,2.1-4.4,5.4-9.3,10.3l6.8,6.8c6.7-5.5,10.1-11.4,10.1-17.5
		c0-5.8-2.2-10-6.8-12.9v-9.1h2.1h6.9h12.4l-0.3,9.7c-0.3-0.2-0.8-0.5-1.4-1c-0.9-0.7-1.8-1.1-2.5-1.1c-1.3,0-2.8,0.7-2.8,4
		c0,2.5,0.7,4.8,1.9,6.8c1.3,2,3.3,4.6,6.1,7.7c2.8,3.1,5.7,5.4,8.6,6.9c2.9,1.5,6.3,2.2,9.9,2.2c3,0,6.1-1,9.3-2.9v-0.1l7.5,7.7
		h0.7v-40h8.4h12.9h14.2v12.3l-0.9-0.8c-4.3-3.9-8.3-5.9-11.8-5.9c-3,0-6.2,1.1-9.3,3.1c-3.1,2.1-4.6,4.5-4.6,7.4
		c0,3.4,1.7,6.9,4.9,10.5c3.3,3.6,6.9,5.4,10.9,5.4c2.7,0,6.1-1.1,10.1-3.2l0.8-0.4v3.8l7.4,7.9h0.8v-40h20.6
		c0.7,1.6,1.1,3.1,1.1,4.4c0,1.7-0.6,3.5-1.7,5.5l-0.3,0.4l-0.5-0.2c-2.6-1.3-4.8-1.9-6.4-1.9c-3.2,0-4.6,1.4-4.6,4.5
		c0,5,9,14.1,26.9,27.2l2.1-2.1c-8-5.7-14-10.6-17.9-14.4l-0.5-0.5l0.6-0.4c5.4-3.6,8.2-8.8,8.2-15.3c0-2.4-0.3-4.7-0.9-6.8
		l-0.1-0.3H388V19.1z M169,39.6l-0.2,0.2c-3.9,3.5-6.3,5.5-7.2,5.9c-1,0.5-1.9,0.8-2.6,0.8c-1.9,0-4.3-0.9-4.3-5.2V26.1H169V39.6z
		 M297.8,40.7c-0.7,0.9-1.9,1.7-3.4,2.5c-3.1,1.5-5.6,2.3-7.5,2.3c-1.3,0-2.4-0.4-3.4-1.2c-0.9-0.8-1.4-1.7-1.4-2.7
		c0-1.6,1-2.9,3-4.1c2-1.2,4.2-1.8,6.4-1.8c1.7,0,3.9,0.5,6.3,1.4V40.7z M297.8,33.5c-2.7-2.1-5.3-3.2-7.8-3.2c-3.2,0-6,0.8-8.2,2.5
		c-2.3,1.7-3.4,4-3.4,6.8c0,2.6,1.2,5.1,3.6,7.5c2.4,2.5,4.9,3.7,7.4,3.7c2.1,0,4.9-1.2,8.4-3.8v3.7c-4.8,3.9-9.3,5.9-13.2,5.9
		c-3,0-5.6-0.7-7.9-2.1c-2.2-1.4-4.6-3.7-7.1-7c2.8-4.4,4.3-8.3,4.5-11.7l0.7-9.9h23.1V33.5z M331.6,50.4c-2.2,1.1-4,1.7-5.6,1.7
		c-1.6,0-3.1-0.6-4.3-1.9c-1.3-1.3-1.9-2.6-1.9-3.9c0-1.6,1.2-3,3.8-4.5l0.4-0.2l8.3,8.4L331.6,50.4z M341.6,43.4L341.6,43.4
		c-0.3,0.8-1.2,2-6.2,4.9l-0.4,0.2l-8.2-8.2l0.7-0.4c2-1.1,4-1.6,5.8-1.6c2.7,0,5.5,1.3,8.2,3.8l0.2,0.2V43.4z"/>
</g>
</svg>
